<svg width="476" height="458" viewBox="0 0 476 458" fill="none"
    xmlns="http://www.w3.org/2000/svg">
    <path d="M469.491 76.821L241.011 0.489192C239.056 -0.163064 236.944 -0.163064 234.989 0.489192L6.50897 76.821C6.373 76.8663 6.25157 76.9357 6.11851 76.987C5.91514 77.0657 5.71816 77.1495 5.52112 77.2409C5.18172 77.4006 4.85192 77.5801 4.53343 77.7784C4.37363 77.878 4.21034 77.9694 4.05638 78.0778C3.65489 78.3605 3.27588 78.674 2.92274 79.0154C2.87449 79.062 2.81873 79.0998 2.77165 79.1476C2.38112 79.5447 2.02626 79.9756 1.71122 80.4352C1.61419 80.575 1.53574 80.7258 1.44628 80.8708C1.23897 81.2029 1.05229 81.5476 0.887289 81.9028C0.801299 82.0897 0.725184 82.279 0.651381 82.4717C0.514648 82.8334 0.400195 83.2031 0.308663 83.5788C0.262752 83.7628 0.210464 83.9422 0.175597 84.1303C0.0636002 84.7046 0.00481777 85.2881 0 85.8733V276.703C0 279.233 1.003 281.66 2.78835 283.45C4.57369 285.239 6.99514 286.244 9.52 286.244C12.0449 286.244 14.4663 285.239 16.2517 283.45C18.037 281.66 19.04 279.233 19.04 276.703V99.1122L123.463 133.998C110.586 151.328 101.792 171.356 97.7419 192.579C93.6916 213.802 94.49 235.668 100.077 256.538C105.664 277.407 115.895 296.737 130.002 313.077C144.108 329.417 161.724 342.343 181.527 350.884C129.22 364.831 83.9389 397.74 54.4577 443.236C53.7727 444.286 53.301 445.46 53.0694 446.693C52.8377 447.925 52.8508 449.191 53.1079 450.419C53.3649 451.646 53.8609 452.811 54.5674 453.846C55.2739 454.881 56.177 455.766 57.2252 456.451C58.2734 457.136 59.4461 457.607 60.6761 457.838C61.9061 458.068 63.1694 458.053 64.3936 457.794C65.6178 457.534 66.7791 457.035 67.8108 456.326C68.8426 455.616 69.7246 454.71 70.4065 453.658C88.5691 425.694 113.41 402.717 142.676 386.812C171.943 370.907 204.708 362.576 238 362.576C271.291 362.576 304.057 370.907 333.323 386.812C362.589 402.717 387.43 425.694 405.593 453.658C406.275 454.71 407.157 455.616 408.188 456.326C409.22 457.035 410.381 457.534 411.605 457.794C412.83 458.053 414.093 458.068 415.323 457.838C416.553 457.607 417.726 457.136 418.774 456.451C419.822 455.766 420.725 454.881 421.432 453.846C422.138 452.811 422.634 451.646 422.891 450.419C423.148 449.191 423.161 447.925 422.93 446.693C422.698 445.46 422.226 444.286 421.541 443.236C392.06 397.74 346.78 364.831 294.473 350.884C314.276 342.343 331.892 329.417 345.999 313.077C360.105 296.737 370.336 277.407 375.923 256.538C381.51 235.668 382.308 213.802 378.258 192.579C374.208 171.356 365.414 151.328 352.537 133.998L469.491 94.9256C471.387 94.2921 473.035 93.077 474.203 91.4523C475.371 89.8277 476 87.8759 476 85.8733C476 83.8708 475.371 81.9189 474.203 80.2943C473.035 78.6697 471.387 77.4545 469.491 76.821H469.491ZM361.76 219.454C361.761 239.358 356.983 258.969 347.829 276.633C338.675 294.296 325.415 309.492 309.168 320.937C292.921 332.383 274.165 339.742 254.483 342.393C234.801 345.043 214.771 342.908 196.086 336.167C177.401 329.427 160.608 318.278 147.127 303.663C133.645 289.049 123.871 271.397 118.629 252.199C113.387 233.001 112.832 212.821 117.01 193.363C121.188 173.905 129.976 155.74 142.633 140.403L234.989 171.257C236.944 171.91 239.056 171.91 241.011 171.257L333.367 140.403C351.745 162.625 361.789 190.59 361.76 219.454ZM333.216 120.337L333.185 120.347L238 152.147L39.6245 85.8733L238 19.6001L436.376 85.8733L333.216 120.337Z" fill="#F5F5F5"/>
</svg>
